<svg id="Icons" height="512" viewBox="0 0 60 60" width="512" xmlns="http://www.w3.org/2000/svg"><path d="m39 3a2.006 2.006 0 0 0 -2-2h-28.17a2.006 2.006 0 0 0 -1.42.59l-5.82 5.82a2.006 2.006 0 0 0 -.59 1.42v42.17a2.006 2.006 0 0 0 2 2h36z" fill="#d9dde3"/><path d="m8 1.18v4.82a2.006 2.006 0 0 1 -2 2h-4.82a2.017 2.017 0 0 1 .41-.59l5.82-5.82a2.017 2.017 0 0 1 .59-.41z" fill="#f1f3f5"/><path d="m34 21h-13v-13a13 13 0 0 1 13 13z" fill="#fccd3a"/><path d="m34 21a12.936 12.936 0 0 1 -2.47 7.61l-2.92 2.92a12.975 12.975 0 0 1 -16.8-1.34l9.19-9.19z" fill="#4cb799"/><path d="m21 21-9.19 9.19a13.01 13.01 0 0 1 -2.44-15.01z" fill="#4e98ec"/><path d="m21 8v13l-11.63-5.82a13 13 0 0 1 11.63-7.18z" fill="#ae97ec"/><circle cx="42" cy="42" fill="#f5ba32" r="17"/><circle cx="42" cy="42" fill="#fccd3a" r="13"/><path d="m11.81 30.19-.01.01" fill="#4cb799"/><g fill="#373737"><path d="m42 24a17.858 17.858 0 0 0 -7.874 1.839 14.037 14.037 0 1 0 -8.287 8.287 17.873 17.873 0 0 0 1.205 17.874h-24.044a1 1 0 0 1 -1-1v-42h4a3 3 0 0 0 3-3v-4h28a1 1 0 0 1 1 1v18a1 1 0 0 0 2 0v-18a3 3 0 0 0 -3-3h-28.17a2.985 2.985 0 0 0 -2.13.883l-5.817 5.817a2.985 2.985 0 0 0 -.883 2.13v42.17a3 3 0 0 0 3 3h25.622a17.988 17.988 0 1 0 13.378-30zm-35-20.586v2.586a1 1 0 0 1 -1 1h-2.586zm25.949 16.586h-10.949v-10.949a12.006 12.006 0 0 1 10.949 10.949zm-12.949-10.949v10.331l-9.234-4.617a12 12 0 0 1 9.234-5.714zm-10.135 7.5 9.447 4.723-7.467 7.467a11.926 11.926 0 0 1 -1.98-12.19zm11.135 16.449a11.944 11.944 0 0 1 -7.741-2.845l8.155-8.155h11.543a11.9 11.9 0 0 1 -2.2 5.963 18.145 18.145 0 0 0 -2.8 2.8 11.9 11.9 0 0 1 -6.957 2.237zm21 25a16 16 0 1 1 16-16 16.019 16.019 0 0 1 -16 16z"/><path d="m42 28a14 14 0 1 0 14 14 14.015 14.015 0 0 0 -14-14zm0 26a12 12 0 1 1 12-12 12.013 12.013 0 0 1 -12 12z"/><path d="m45 38a1 1 0 0 0 2 0 5.009 5.009 0 0 0 -4-4.9v-.1a1 1 0 0 0 -2 0v.1a5 5 0 0 0 0 9.8v5.917a3 3 0 0 1 -2-2.817 1 1 0 0 0 -2 0 5.009 5.009 0 0 0 4 4.9v.1a1 1 0 0 0 2 0v-.1a5 5 0 0 0 0-9.8v-5.916a3 3 0 0 1 2 2.816zm-6 0a3 3 0 0 1 2-2.816v5.632a3 3 0 0 1 -2-2.816zm6 8a3 3 0 0 1 -2 2.816v-5.632a3 3 0 0 1 2 2.816z"/><path d="m8 36a1 1 0 0 0 -1 1v10a1 1 0 0 0 1 1h13a1 1 0 0 0 0-2h-4v-7a1 1 0 0 0 -2 0v7h-2v-3a1 1 0 0 0 -2 0v3h-2v-9a1 1 0 0 0 -1-1z"/><path d="m46 22a1 1 0 0 0 1-1v-11.586l1.293 1.293a1 1 0 0 0 1.414-1.414l-3-3a1 1 0 0 0 -1.414 0l-3 3a1 1 0 0 0 1.414 1.414l1.293-1.293v11.586a1 1 0 0 0 1 1z"/><path d="m50.661 23.2a.99.99 0 0 0 .474.12 1 1 0 0 0 .881-.525l5.5-10.2.524 1.753a1 1 0 0 0 .958.713.981.981 0 0 0 .286-.042 1 1 0 0 0 .672-1.244l-1.213-4.061a1 1 0 0 0 -1.243-.672l-4.065 1.215a1 1 0 0 0 .572 1.916l1.752-.524-5.5 10.2a1 1 0 0 0 .402 1.351z"/></g></svg>