<svg id="Layer_1" enable-background="new 0 0 511.975 511.975" height="512" viewBox="0 0 511.975 511.975" width="512" xmlns="http://www.w3.org/2000/svg"><g><path d="m147.032 393.302h217.911v118.673h-217.911z" fill="#7ed8f6"/><path d="m255.987 393.302h108.955v118.673h-108.955z" fill="#4895ff"/><g><path d="m203.654 393.302h30v118.673h-30z" fill="#495959"/></g><path d="m110.655 337.298h290.664v86.004h-290.664z" fill="#607882"/><path d="m255.987 337.298h145.332v86.004h-145.332z" fill="#495959"/><path d="m110.655 0h290.664v367.298h-290.664z" fill="#87a0af"/><path d="m255.987 0h145.332v367.298h-145.332z" fill="#607882"/><path d="m185.659 73.004h140.656v67.303h-140.656z" fill="#a5e887"/><path d="m255.987 73.004h70.328v67.303h-70.328z" fill="#00cc76"/><path d="m341.315 155.307h-170.656v-97.303h170.656zm-140.656-30h110.656v-37.303h-110.656z" fill="#607882"/><path d="m341.315 58.004h-85.328v30h55.328v37.303h-55.328v30h85.328z" fill="#495959"/><g><path d="m240.986 180.3h30.002v30h-30.002z" fill="#e1ebf0"/></g><g><path d="m290.989 180.3h30.002v30h-30.002z" fill="#e1ebf0"/></g><g><path d="m190.983 180.3h30.001v30h-30.001z" fill="#e1ebf0"/></g><g><path d="m240.986 230.304h30.002v30h-30.002z" fill="#e1ebf0"/></g><g><path d="m290.989 230.304h30.002v30h-30.002z" fill="#e1ebf0"/></g><g><path d="m190.983 230.304h30.001v30h-30.001z" fill="#e1ebf0"/></g><g><path d="m240.986 280.307h30.002v30h-30.002z" fill="#e1ebf0"/></g><g><path d="m290.989 280.307h30.002v30h-30.002z" fill="#e1ebf0"/></g><g><path d="m190.983 280.307h30.001v30h-30.001z" fill="#e1ebf0"/></g><g><path d="m290.989 180.3h30.002v30h-30.002z" fill="#b4d2d7"/></g><g><path d="m290.989 230.304h30.002v30h-30.002z" fill="#b4d2d7"/></g><g><path d="m290.989 280.307h30.002v30h-30.002z" fill="#b4d2d7"/></g><g fill="#b4d2d7"><path d="m255.987 180.3h15.001v30h-15.001z"/><path d="m255.987 230.304h15.001v30h-15.001z"/><path d="m255.987 280.307h15.001v30h-15.001z"/></g></g></svg>