<?xml version="1.0" ?><!DOCTYPE svg  PUBLIC '-//W3C//DTD SVG 1.1//EN'  'http://www.w3.org/Graphics/SVG/1.1/DTD/svg11.dtd'><svg enable-background="new 0 0 841.89 595.28" height="595.28px" id="Layer_1" version="1.1" viewBox="0 0 841.89 595.28" width="841.89px" xml:space="preserve" xmlns="http://www.w3.org/2000/svg" xmlns:xlink="http://www.w3.org/1999/xlink"><path d="M732.022,296.97c0,164.008-132.962,296.961-296.97,296.961c-164.009,0-296.962-132.953-296.962-296.961  C138.091,132.953,271.044,0,435.053,0C599.061,0,732.022,132.953,732.022,296.97z" fill="#007BAA"/><path d="M729.235,336.761c-0.18-0.079-0.346-0.164-0.525-0.243c-0.247-0.125-0.515-0.245-0.771-0.363  c-0.268-0.13-0.543-0.263-0.818-0.388c-0.274-0.134-0.55-0.261-0.835-0.39c-0.256-0.129-0.522-0.25-0.79-0.374  c-0.265-0.132-0.55-0.261-0.825-0.391c-0.265-0.129-0.532-0.254-0.808-0.376c-0.257-0.125-0.515-0.25-0.779-0.37  c-0.285-0.143-0.569-0.273-0.854-0.407c-0.258-0.125-0.522-0.245-0.781-0.363c-0.273-0.134-0.55-0.268-0.825-0.396  c-0.276-0.134-0.559-0.263-0.834-0.39c-0.257-0.125-0.523-0.245-0.791-0.37c-0.267-0.131-0.54-0.261-0.816-0.385  c-0.265-0.13-0.523-0.254-0.79-0.372c-0.276-0.134-0.55-0.264-0.825-0.393c-0.266-0.133-0.541-0.26-0.817-0.385  c-0.267-0.129-0.531-0.259-0.808-0.381c-0.275-0.134-0.549-0.268-0.834-0.396c-0.268-0.129-0.534-0.248-0.799-0.372  c-0.268-0.13-0.532-0.254-0.799-0.379c-0.276-0.132-0.552-0.261-0.835-0.395c-0.258-0.124-0.522-0.249-0.79-0.367  c-0.267-0.13-0.525-0.254-0.799-0.379c-0.276-0.138-0.561-0.27-0.852-0.403c-0.259-0.129-0.525-0.249-0.793-0.374  c-0.273-0.132-0.549-0.261-0.823-0.39c-0.267-0.129-0.534-0.254-0.81-0.377c-0.256-0.129-0.523-0.254-0.788-0.378  c-0.285-0.132-0.569-0.266-0.854-0.398c-0.256-0.125-0.522-0.245-0.779-0.368c-0.267-0.125-0.525-0.25-0.792-0.374  c-0.274-0.139-0.559-0.266-0.843-0.398c-0.266-0.13-0.541-0.259-0.816-0.388c-0.268-0.127-0.532-0.252-0.809-0.377  c-0.256-0.129-0.523-0.252-0.79-0.376c-0.276-0.13-0.55-0.259-0.825-0.388c-0.273-0.132-0.55-0.261-0.834-0.395  c-0.259-0.125-0.523-0.249-0.791-0.367c-0.265-0.13-0.531-0.259-0.808-0.384c-0.267-0.134-0.541-0.261-0.816-0.385  c-0.265-0.134-0.55-0.263-0.825-0.392c-0.268-0.128-0.534-0.252-0.799-0.377c-0.268-0.129-0.541-0.254-0.809-0.377  c-0.267-0.133-0.543-0.258-0.816-0.387c-0.268-0.134-0.541-0.261-0.816-0.386c-0.268-0.134-0.543-0.259-0.816-0.381  c-0.259-0.13-0.532-0.259-0.8-0.384c-0.275-0.129-0.543-0.256-0.816-0.381c-0.267-0.133-0.543-0.258-0.808-0.387  c-0.268-0.127-0.543-0.252-0.808-0.377c-0.276-0.134-0.552-0.261-0.825-0.39c-0.268-0.129-0.543-0.259-0.819-0.383  c-0.265-0.127-0.532-0.257-0.806-0.381c-0.258-0.13-0.525-0.255-0.793-0.372c-0.273-0.139-0.558-0.268-0.831-0.396  c-0.276-0.134-0.543-0.257-0.819-0.381c-0.256-0.13-0.532-0.254-0.799-0.379c-0.256-0.127-0.532-0.252-0.799-0.381  c-0.274-0.134-0.55-0.263-0.834-0.39c-0.266-0.134-0.541-0.259-0.817-0.388c-0.267-0.129-0.532-0.252-0.799-0.377  c-0.265-0.129-0.532-0.254-0.799-0.376c-0.276-0.134-0.559-0.263-0.834-0.393c-0.266-0.129-0.541-0.256-0.809-0.381  c-0.267-0.129-0.54-0.258-0.816-0.383c-0.258-0.127-0.523-0.252-0.781-0.372c-0.276-0.129-0.541-0.261-0.816-0.386  c-0.285-0.138-0.567-0.271-0.86-0.404c-0.25-0.125-0.508-0.243-0.773-0.364c-0.267-0.133-0.549-0.263-0.825-0.39  c-0.267-0.129-0.543-0.258-0.816-0.383c-0.268-0.129-0.532-0.256-0.808-0.381c-0.268-0.129-0.534-0.254-0.809-0.379  c-0.258-0.127-0.522-0.256-0.79-0.376c-0.275-0.134-0.552-0.264-0.825-0.391c-0.275-0.138-0.561-0.267-0.834-0.396  c-0.259-0.125-0.525-0.248-0.781-0.368c-0.276-0.134-0.553-0.263-0.826-0.392c-0.275-0.132-0.552-0.261-0.836-0.386  c-0.256-0.129-0.523-0.252-0.788-0.372c-0.276-0.134-0.543-0.263-0.819-0.388c-0.265-0.127-0.522-0.252-0.788-0.372  c-0.275-0.134-0.552-0.267-0.836-0.394c-0.265-0.13-0.532-0.259-0.808-0.384c-0.266-0.133-0.541-0.256-0.816-0.385  c-0.268-0.13-0.541-0.259-0.817-0.381c-0.265-0.134-0.54-0.259-0.808-0.384c-0.267-0.129-0.532-0.251-0.799-0.376  c-0.273-0.134-0.55-0.263-0.834-0.396c-0.259-0.122-0.523-0.247-0.791-0.368c-0.267-0.129-0.531-0.258-0.799-0.381  c-0.284-0.133-0.559-0.267-0.843-0.396c-0.259-0.13-0.532-0.252-0.799-0.377c-0.268-0.134-0.55-0.263-0.825-0.392  c-0.268-0.127-0.543-0.257-0.817-0.381c-0.258-0.125-0.514-0.243-0.772-0.363c-0.284-0.143-0.569-0.276-0.86-0.41  c-0.25-0.122-0.517-0.238-0.772-0.363c-0.268-0.129-0.543-0.258-0.809-0.381c-0.275-0.138-0.561-0.268-0.843-0.4  c-0.267-0.129-0.534-0.252-0.799-0.377c-0.276-0.129-0.552-0.258-0.816-0.381c-0.268-0.129-0.525-0.254-0.79-0.374  c-0.276-0.134-0.561-0.265-0.837-0.395c-0.265-0.129-0.532-0.254-0.808-0.378c-0.265-0.131-0.55-0.261-0.825-0.39  c-0.257-0.125-0.523-0.25-0.782-0.368c-0.273-0.134-0.549-0.268-0.834-0.396c-0.265-0.129-0.541-0.256-0.816-0.381  c-0.265-0.129-0.532-0.258-0.808-0.383c-0.257-0.127-0.532-0.251-0.8-0.376c-0.265-0.134-0.54-0.256-0.816-0.385  c-0.265-0.134-0.54-0.263-0.816-0.388c-0.267-0.127-0.541-0.256-0.816-0.381c-0.259-0.129-0.532-0.258-0.799-0.381  c-0.276-0.129-0.541-0.258-0.816-0.383c-0.268-0.133-0.541-0.26-0.817-0.385c-0.275-0.133-0.54-0.258-0.816-0.381  c-0.259-0.129-0.523-0.254-0.79-0.379c-0.276-0.133-0.55-0.26-0.825-0.39c-0.268-0.129-0.543-0.254-0.809-0.378  c-0.267-0.127-0.531-0.256-0.808-0.381c-0.275-0.133-0.552-0.263-0.825-0.39c-0.276-0.133-0.543-0.258-0.816-0.383  c-0.268-0.129-0.534-0.251-0.8-0.376c-0.267-0.129-0.533-0.259-0.799-0.383c-0.284-0.131-0.561-0.265-0.845-0.394  c-0.265-0.129-0.532-0.254-0.797-0.377c-0.268-0.129-0.543-0.258-0.819-0.383c-0.256-0.127-0.531-0.252-0.799-0.376  c-0.265-0.134-0.55-0.263-0.825-0.39c-0.265-0.129-0.532-0.254-0.808-0.378c-0.266-0.133-0.541-0.261-0.816-0.385  c-0.266-0.129-0.532-0.254-0.8-0.377c-0.265-0.129-0.532-0.258-0.799-0.383c-0.282-0.134-0.567-0.271-0.852-0.403  c-0.268-0.125-0.523-0.245-0.79-0.37c-0.266-0.127-0.532-0.251-0.8-0.372c-0.265-0.133-0.54-0.267-0.825-0.39  c-0.275-0.138-0.559-0.267-0.843-0.401c-0.249-0.12-0.497-0.234-0.746-0.354c-0.285-0.138-0.567-0.271-0.86-0.405  c-0.259-0.123-0.523-0.248-0.782-0.368c-0.284-0.138-0.566-0.271-0.852-0.403c-0.258-0.12-0.506-0.241-0.764-0.361  c-0.285-0.131-0.569-0.265-0.852-0.398c-0.259-0.125-0.525-0.25-0.791-0.372c-0.275-0.133-0.56-0.267-0.852-0.4  c-0.249-0.125-0.508-0.239-0.764-0.359c-0.276-0.133-0.552-0.263-0.825-0.396c-0.268-0.127-0.543-0.252-0.809-0.381  c-0.275-0.134-0.56-0.263-0.836-0.39c-0.256-0.125-0.523-0.246-0.779-0.37c-0.275-0.131-0.552-0.261-0.836-0.39  c-0.257-0.129-0.523-0.254-0.788-0.376c-0.276-0.134-0.552-0.263-0.828-0.392c-0.273-0.129-0.55-0.256-0.816-0.381  c-0.265-0.134-0.541-0.258-0.816-0.383c-0.257-0.127-0.532-0.251-0.8-0.376c-0.265-0.133-0.54-0.263-0.816-0.385  c-0.265-0.134-0.54-0.258-0.808-0.388c-0.273-0.129-0.55-0.256-0.834-0.385c-0.259-0.125-0.515-0.25-0.781-0.372  c-0.276-0.129-0.55-0.258-0.825-0.388c-0.268-0.133-0.541-0.256-0.809-0.385c-0.275-0.129-0.549-0.258-0.825-0.387  c-0.259-0.123-0.523-0.248-0.781-0.368c-0.276-0.133-0.559-0.267-0.834-0.394c-0.268-0.129-0.541-0.254-0.809-0.383  c-0.275-0.127-0.552-0.256-0.816-0.381c-0.267-0.129-0.532-0.254-0.799-0.377c-0.276-0.133-0.561-0.267-0.843-0.396  c-0.259-0.129-0.517-0.248-0.782-0.368c-0.275-0.134-0.552-0.268-0.834-0.396c-0.258-0.123-0.525-0.248-0.781-0.368  c-0.276-0.134-0.552-0.267-0.834-0.394c-0.268-0.129-0.543-0.258-0.816-0.388c-0.268-0.129-0.543-0.252-0.809-0.376  c-0.267-0.129-0.525-0.254-0.79-0.372c-0.275-0.134-0.552-0.267-0.836-0.396c-0.266-0.133-0.541-0.256-0.816-0.385  c-0.266-0.129-0.532-0.254-0.809-0.379c-0.256-0.127-0.523-0.251-0.799-0.376c-0.265-0.133-0.541-0.263-0.816-0.39  c-0.273-0.129-0.55-0.258-0.825-0.387c-0.266-0.129-0.541-0.252-0.809-0.381c-0.256-0.125-0.522-0.245-0.79-0.368  c-0.273-0.134-0.55-0.267-0.834-0.396c-0.268-0.129-0.532-0.251-0.808-0.381c-0.259-0.125-0.523-0.25-0.791-0.374  c-0.284-0.136-0.566-0.27-0.843-0.398c-0.267-0.129-0.531-0.254-0.799-0.373c-0.268-0.133-0.541-0.258-0.816-0.387  c-0.259-0.129-0.523-0.252-0.791-0.376c-0.284-0.134-0.558-0.267-0.842-0.396c-0.268-0.127-0.535-0.252-0.8-0.372  c-0.258-0.129-0.523-0.252-0.79-0.376c-0.276-0.134-0.561-0.267-0.852-0.401c-0.259-0.129-0.534-0.251-0.799-0.376  c-0.268-0.129-0.543-0.258-0.817-0.381c-0.258-0.129-0.517-0.25-0.781-0.375c-0.276-0.131-0.561-0.265-0.843-0.394  c-0.268-0.134-0.543-0.258-0.818-0.388c-0.266-0.127-0.532-0.251-0.8-0.376c-0.265-0.125-0.523-0.247-0.788-0.372  c-0.275-0.133-0.561-0.267-0.845-0.401c-0.265-0.127-0.541-0.251-0.808-0.376c-0.266-0.129-0.532-0.254-0.809-0.376  c-0.265-0.133-0.531-0.258-0.808-0.383c-0.265-0.134-0.541-0.261-0.816-0.39c-0.265-0.129-0.541-0.254-0.808-0.383  c-0.274-0.127-0.55-0.256-0.817-0.381c-0.265-0.129-0.531-0.254-0.799-0.373c-0.265-0.133-0.541-0.263-0.816-0.392  c-0.276-0.131-0.55-0.261-0.834-0.39c-0.259-0.125-0.515-0.25-0.782-0.372c-0.284-0.134-0.566-0.268-0.852-0.401  c-0.249-0.121-0.496-0.234-0.746-0.35c-0.285-0.143-0.576-0.28-0.869-0.414c-0.259-0.123-0.523-0.247-0.781-0.368  c-0.276-0.134-0.55-0.261-0.834-0.39c-0.268-0.129-0.535-0.254-0.809-0.383c-0.258-0.123-0.525-0.247-0.79-0.372  c-0.276-0.134-0.552-0.267-0.834-0.394c-0.268-0.134-0.543-0.258-0.816-0.383c-0.259-0.133-0.534-0.256-0.8-0.381  c-0.267-0.129-0.534-0.254-0.808-0.379c-0.267-0.131-0.543-0.26-0.816-0.39c-0.276-0.129-0.552-0.258-0.827-0.385  c-0.257-0.125-0.523-0.25-0.789-0.375c-0.267-0.127-0.551-0.256-0.827-0.385c-0.265-0.129-0.541-0.258-0.808-0.385  c-0.273-0.129-0.541-0.258-0.816-0.383c-0.266-0.129-0.532-0.252-0.8-0.377c-0.273-0.133-0.558-0.263-0.834-0.392  c-0.256-0.123-0.515-0.248-0.781-0.368c-0.273-0.134-0.559-0.265-0.834-0.394c-0.266-0.129-0.523-0.254-0.791-0.375  c-0.273-0.136-0.558-0.265-0.834-0.394c-3.231-1.572-6.89-2.792-10.856-3.759c-0.206-0.094-0.4-0.201-0.613-0.289  c-0.258-0.121-0.514-0.259-0.781-0.37c-0.285-0.131-0.559-0.278-0.852-0.403c-0.268-0.121-0.523-0.258-0.79-0.368  c-0.276-0.125-0.532-0.268-0.809-0.383c-0.284-0.127-0.552-0.274-0.843-0.394c-0.258-0.116-0.497-0.254-0.764-0.363  c-0.285-0.129-0.561-0.276-0.843-0.401c-0.268-0.121-0.525-0.256-0.8-0.372c-0.267-0.125-0.533-0.267-0.808-0.381  c-0.275-0.129-0.552-0.276-0.836-0.396c-0.273-0.125-0.532-0.263-0.808-0.381c-0.266-0.121-0.523-0.263-0.797-0.375  c-0.268-0.123-0.534-0.265-0.811-0.381c-0.273-0.129-0.541-0.271-0.816-0.385c-0.265-0.125-0.523-0.267-0.799-0.383  c-0.291-0.129-0.567-0.28-0.86-0.398c-0.257-0.116-0.497-0.25-0.756-0.356c-0.282-0.132-0.558-0.283-0.852-0.403  c-0.267-0.125-0.532-0.263-0.808-0.381c-0.276-0.12-0.532-0.263-0.808-0.378c-0.268-0.119-0.515-0.256-0.782-0.373  c-0.282-0.129-0.549-0.275-0.843-0.394c-0.275-0.129-0.54-0.271-0.816-0.387c-0.267-0.121-0.515-0.256-0.781-0.368  c-0.276-0.129-0.55-0.275-0.835-0.396c-0.275-0.123-0.54-0.265-0.816-0.385c-0.275-0.121-0.531-0.263-0.808-0.376  c-0.275-0.125-0.541-0.267-0.825-0.388c-0.259-0.118-0.506-0.252-0.764-0.368c-0.285-0.129-0.559-0.276-0.852-0.394  c-0.276-0.125-0.535-0.267-0.809-0.388c-0.275-0.121-0.534-0.26-0.808-0.372c-0.267-0.125-0.517-0.263-0.79-0.379  c-0.285-0.131-0.569-0.278-0.863-0.403c-0.256-0.12-0.514-0.258-0.779-0.368c-0.275-0.129-0.543-0.271-0.827-0.392  c-0.256-0.12-0.506-0.251-0.771-0.368c-0.276-0.125-0.543-0.267-0.816-0.385c-0.285-0.129-0.561-0.276-0.846-0.396  c-0.273-0.129-0.541-0.271-0.825-0.39c-0.265-0.12-0.515-0.258-0.781-0.37c-0.282-0.123-0.55-0.27-0.825-0.385  c-0.274-0.125-0.541-0.268-0.817-0.381c-0.265-0.125-0.531-0.267-0.808-0.383c-0.265-0.123-0.523-0.261-0.799-0.376  c-0.265-0.125-0.523-0.268-0.799-0.377c-0.283-0.133-0.559-0.28-0.844-0.405c-0.267-0.121-0.522-0.263-0.799-0.372  c-0.284-0.129-0.559-0.276-0.843-0.396c-0.258-0.114-0.497-0.251-0.764-0.363c-0.276-0.125-0.55-0.271-0.834-0.39  c-0.285-0.134-0.569-0.28-0.853-0.401c-0.258-0.116-0.496-0.247-0.755-0.354c-0.267-0.125-0.523-0.267-0.79-0.381  c-0.294-0.134-0.567-0.28-0.86-0.405c-0.276-0.125-0.534-0.263-0.808-0.381c-0.276-0.125-0.543-0.263-0.817-0.383  c-0.258-0.118-0.508-0.251-0.772-0.368c-0.285-0.129-0.561-0.276-0.852-0.398c-0.276-0.125-0.534-0.267-0.808-0.383  c-0.268-0.114-0.517-0.252-0.773-0.364c-0.293-0.133-0.569-0.28-0.862-0.405c-0.265-0.123-0.532-0.261-0.808-0.381  c-0.265-0.121-0.532-0.263-0.808-0.377c-0.266-0.125-0.532-0.267-0.809-0.383c-0.265-0.123-0.523-0.261-0.799-0.377  c-0.273-0.129-0.541-0.271-0.825-0.39c-0.273-0.125-0.532-0.267-0.808-0.383c-0.266-0.121-0.515-0.256-0.782-0.368  c-0.291-0.138-0.575-0.284-0.869-0.409c-0.258-0.118-0.515-0.256-0.781-0.368c-0.276-0.129-0.541-0.271-0.825-0.39  c-0.259-0.121-0.506-0.254-0.773-0.37c-0.293-0.131-0.566-0.278-0.86-0.398c-0.267-0.125-0.522-0.263-0.79-0.376  c-0.275-0.125-0.541-0.267-0.825-0.383c-0.259-0.118-0.506-0.26-0.772-0.372c-0.294-0.133-0.567-0.28-0.869-0.405  c-0.259-0.119-0.518-0.256-0.782-0.368c-0.275-0.125-0.532-0.267-0.808-0.381c-0.268-0.125-0.523-0.263-0.799-0.379  c-0.285-0.131-0.561-0.278-0.852-0.403c-0.268-0.12-0.518-0.258-0.782-0.368c-0.284-0.129-0.552-0.271-0.834-0.392  c-0.258-0.116-0.508-0.256-0.772-0.368c-0.285-0.129-0.552-0.276-0.834-0.396c-0.285-0.127-0.561-0.27-0.846-0.39  c-0.256-0.121-0.514-0.258-0.781-0.368c-0.265-0.12-0.515-0.263-0.788-0.378c-0.284-0.131-0.569-0.278-0.862-0.403  c-0.257-0.121-0.515-0.258-0.782-0.368c-0.282-0.129-0.549-0.271-0.834-0.392c-0.256-0.121-0.506-0.256-0.772-0.363  c-0.282-0.134-0.559-0.28-0.843-0.405c-0.276-0.123-0.541-0.265-0.817-0.381c-0.256-0.121-0.505-0.254-0.772-0.363  c-0.282-0.134-0.558-0.28-0.852-0.405c-0.259-0.114-0.506-0.256-0.772-0.363c-0.294-0.138-0.585-0.289-0.878-0.414  c-0.259-0.119-0.515-0.252-0.773-0.364c-0.267-0.12-0.515-0.256-0.781-0.368c-0.293-0.138-0.576-0.285-0.869-0.409  c-0.267-0.119-0.515-0.256-0.781-0.368c-0.268-0.125-0.523-0.263-0.791-0.376c-0.284-0.129-0.558-0.276-0.852-0.4  c-0.258-0.114-0.506-0.256-0.772-0.368c-0.285-0.129-0.561-0.276-0.852-0.4c-0.268-0.118-0.534-0.261-0.808-0.376  c-0.268-0.125-0.534-0.267-0.809-0.381c-0.267-0.125-0.525-0.263-0.799-0.379c-0.284-0.127-0.561-0.274-0.845-0.394  c-0.266-0.125-0.515-0.258-0.791-0.373c-0.265-0.125-0.522-0.263-0.797-0.378c-0.267-0.123-0.525-0.265-0.799-0.381  c-0.284-0.129-0.561-0.276-0.845-0.394c-0.265-0.125-0.532-0.267-0.808-0.383c-0.274-0.125-0.541-0.265-0.817-0.385  c-0.265-0.121-0.522-0.258-0.79-0.375c-0.273-0.127-0.55-0.269-0.834-0.39c-0.265-0.125-0.523-0.263-0.799-0.376  c-0.266-0.125-0.515-0.263-0.791-0.375c-0.282-0.131-0.566-0.282-0.86-0.407c-0.267-0.12-0.522-0.258-0.799-0.375  c-0.267-0.123-0.532-0.265-0.808-0.381c-0.276-0.129-0.541-0.271-0.825-0.39c-0.259-0.116-0.497-0.25-0.765-0.359  c-0.284-0.129-0.558-0.28-0.852-0.401c-0.267-0.129-0.532-0.267-0.808-0.385c-0.267-0.116-0.515-0.258-0.781-0.366  c-0.285-0.131-0.559-0.278-0.843-0.402c-0.276-0.125-0.543-0.263-0.817-0.381c-0.267-0.12-0.525-0.263-0.799-0.378  c-0.267-0.121-0.525-0.256-0.79-0.372c-0.285-0.129-0.561-0.276-0.852-0.401c-0.268-0.123-0.534-0.261-0.809-0.376  c-0.267-0.125-0.534-0.267-0.808-0.381c-0.258-0.121-0.517-0.258-0.772-0.37c-0.294-0.134-0.569-0.282-0.863-0.403  c-0.265-0.125-0.522-0.263-0.799-0.379c-0.273-0.123-0.531-0.265-0.808-0.381c-0.265-0.121-0.515-0.258-0.79-0.372  c-0.283-0.134-0.559-0.28-0.852-0.401c-0.266-0.123-0.523-0.26-0.8-0.376c-0.265-0.125-0.531-0.267-0.808-0.381  c-0.265-0.121-0.523-0.263-0.79-0.375c-0.282-0.131-0.559-0.278-0.843-0.398c-0.276-0.12-0.532-0.263-0.799-0.376  c-0.276-0.125-0.541-0.267-0.826-0.387c-0.258-0.121-0.506-0.252-0.772-0.368c-0.293-0.129-0.567-0.28-0.86-0.4  c-0.268-0.123-0.523-0.261-0.799-0.377c-0.268-0.125-0.523-0.263-0.8-0.376c-0.275-0.125-0.54-0.267-0.816-0.387  c-0.267-0.121-0.523-0.261-0.79-0.377c-0.276-0.125-0.55-0.271-0.825-0.387c-0.285-0.131-0.561-0.278-0.852-0.398  c-0.259-0.121-0.509-0.254-0.765-0.363c-0.284-0.125-0.552-0.271-0.834-0.392c-0.258-0.118-0.517-0.261-0.79-0.372  c-0.285-0.134-0.569-0.28-0.862-0.405c-0.257-0.114-0.497-0.247-0.754-0.359c-0.284-0.127-0.561-0.273-0.845-0.398  c-0.273-0.125-0.541-0.263-0.816-0.383c-0.265-0.118-0.532-0.26-0.808-0.376c-0.257-0.12-0.515-0.26-0.779-0.372  c-0.276-0.125-0.543-0.271-0.819-0.388c-0.291-0.131-0.567-0.282-0.869-0.407c-0.247-0.116-0.497-0.25-0.755-0.354  c-0.283-0.129-0.559-0.28-0.844-0.401c-0.256-0.12-0.514-0.256-0.781-0.368c-0.282-0.129-0.549-0.276-0.834-0.396  c-0.275-0.127-0.541-0.265-0.816-0.385c-0.276-0.125-0.541-0.267-0.816-0.381c-0.259-0.116-0.497-0.25-0.756-0.361  c-0.291-0.131-0.566-0.283-0.869-0.407c-0.267-0.125-0.532-0.263-0.808-0.376c-0.276-0.129-0.541-0.271-0.816-0.388  c-0.268-0.125-0.523-0.261-0.8-0.376c-0.275-0.125-0.54-0.271-0.825-0.388c-0.267-0.118-0.515-0.256-0.772-0.368  c-0.285-0.129-0.55-0.276-0.834-0.39c-0.276-0.125-0.534-0.267-0.809-0.383c-0.275-0.127-0.542-0.269-0.816-0.385  c-0.275-0.129-0.543-0.271-0.825-0.39c-0.258-0.121-0.508-0.254-0.772-0.366c-0.285-0.133-0.561-0.278-0.852-0.403  c-0.276-0.125-0.534-0.267-0.811-0.383c-0.273-0.123-0.531-0.261-0.808-0.377c-0.273-0.125-0.541-0.267-0.816-0.381  c-0.273-0.129-0.541-0.271-0.825-0.388c-0.248-0.118-0.497-0.251-0.754-0.363c-0.293-0.133-0.568-0.28-0.862-0.405  c-0.265-0.118-0.506-0.252-0.772-0.368c-0.282-0.129-0.559-0.276-0.852-0.398c-3.612-1.651-7.617-2.597-11.842-2.597  c-15.84,0-28.605,12.81-28.605,28.594c0,11.866,7.218,22.048,17.543,26.372c0.258,0.116,0.506,0.252,0.764,0.363  c0.285,0.134,0.559,0.28,0.852,0.401c0.259,0.118,0.506,0.256,0.765,0.363c0.293,0.134,0.566,0.285,0.869,0.407  c0.267,0.121,0.522,0.263,0.799,0.375c0.267,0.127,0.532,0.269,0.816,0.385c0.259,0.121,0.515,0.258,0.781,0.368  c0.285,0.134,0.55,0.28,0.843,0.401c0.276,0.125,0.535,0.265,0.809,0.381c0.275,0.125,0.534,0.267,0.808,0.381  c0.267,0.116,0.517,0.258,0.781,0.37c0.285,0.129,0.561,0.278,0.852,0.398c0.276,0.129,0.543,0.267,0.819,0.387  c0.265,0.119,0.523,0.261,0.797,0.373c0.267,0.125,0.517,0.263,0.79,0.376c0.276,0.125,0.543,0.271,0.828,0.387  c0.273,0.129,0.54,0.274,0.825,0.395c0.273,0.12,0.531,0.263,0.808,0.378c0.265,0.123,0.523,0.261,0.79,0.372  c0.283,0.129,0.541,0.271,0.826,0.39c0.273,0.125,0.54,0.271,0.825,0.387c0.265,0.123,0.531,0.261,0.799,0.376  c0.265,0.125,0.523,0.263,0.79,0.377c0.282,0.129,0.55,0.271,0.843,0.396c0.276,0.125,0.532,0.265,0.817,0.381  c0.267,0.125,0.522,0.267,0.799,0.381c0.284,0.125,0.549,0.267,0.834,0.388c0.258,0.121,0.497,0.251,0.764,0.363  c0.285,0.129,0.55,0.276,0.834,0.396c0.276,0.123,0.541,0.265,0.817,0.385c0.284,0.129,0.552,0.271,0.834,0.39  c0.258,0.116,0.497,0.25,0.764,0.361c0.276,0.123,0.541,0.269,0.816,0.39c0.294,0.133,0.569,0.28,0.86,0.405  c0.268,0.119,0.525,0.256,0.8,0.368c0.258,0.12,0.508,0.258,0.772,0.372c0.275,0.125,0.532,0.267,0.808,0.383  c0.294,0.131,0.578,0.282,0.88,0.407c0.257,0.116,0.506,0.254,0.763,0.364c0.275,0.125,0.552,0.271,0.827,0.392  c0.265,0.121,0.523,0.256,0.788,0.372c0.284,0.125,0.543,0.271,0.827,0.392c0.274,0.123,0.541,0.265,0.817,0.381  c0.273,0.129,0.549,0.271,0.834,0.39c0.256,0.116,0.497,0.254,0.764,0.366c0.282,0.131,0.559,0.278,0.852,0.398  c0.266,0.125,0.523,0.267,0.8,0.376c0.273,0.129,0.549,0.271,0.834,0.392c0.258,0.12,0.497,0.252,0.764,0.363  c0.282,0.129,0.55,0.276,0.843,0.396c0.268,0.123,0.532,0.265,0.808,0.385c0.285,0.125,0.55,0.267,0.826,0.385  c0.258,0.116,0.506,0.254,0.764,0.366c0.293,0.127,0.567,0.278,0.86,0.398c0.268,0.125,0.523,0.267,0.799,0.376  c0.285,0.129,0.552,0.276,0.835,0.396c0.258,0.116,0.505,0.247,0.764,0.359c0.275,0.129,0.55,0.276,0.834,0.396  c0.275,0.123,0.543,0.265,0.825,0.386c0.268,0.125,0.534,0.267,0.808,0.381c0.259,0.12,0.518,0.258,0.782,0.37  c0.284,0.131,0.561,0.278,0.843,0.398c0.275,0.125,0.534,0.267,0.808,0.381c0.276,0.125,0.543,0.267,0.816,0.383  c0.268,0.121,0.517,0.256,0.773,0.368c0.284,0.129,0.561,0.28,0.854,0.4c0.265,0.123,0.532,0.265,0.808,0.381  c0.256,0.121,0.515,0.258,0.779,0.368c0.285,0.134,0.561,0.28,0.854,0.405c0.273,0.121,0.531,0.26,0.799,0.376  c0.273,0.125,0.541,0.267,0.825,0.388c0.275,0.118,0.532,0.26,0.808,0.376c0.266,0.121,0.515,0.256,0.782,0.368  c0.273,0.129,0.54,0.276,0.825,0.396c0.275,0.123,0.54,0.265,0.816,0.381c0.267,0.125,0.523,0.267,0.799,0.376  c0.285,0.133,0.559,0.28,0.852,0.401c0.268,0.118,0.523,0.26,0.791,0.372c0.267,0.125,0.531,0.267,0.799,0.381  c0.275,0.12,0.532,0.263,0.799,0.379c0.276,0.125,0.532,0.265,0.816,0.381c0.294,0.138,0.578,0.289,0.878,0.414  c0,0,0.02,0.013,0.037,0.018v7.4h-0.072v-0.383h-0.816v-0.381h-0.808v-0.39h-0.816v-0.383h-0.808v-0.381h-0.809v-0.381h-0.816  v-0.388h-0.808v-0.381h-0.816v-0.383h-0.808v-0.381h-0.817v-0.385h-0.808v-0.383h-0.816v-0.381h-0.808v-0.383h-0.817v-0.381h-0.808  v-0.381h-0.816v-0.383h-0.808v-0.385h-0.809v-0.381h-0.818v-0.383h-0.808v-0.381h-0.816v-0.388h-0.809v-0.381h-0.816v-0.381h-0.816  v-0.388h-0.808v-0.381h-0.816v-0.381h-0.809v-0.383h-0.808v-0.385h-0.816v-0.383h-0.808v-0.381h-0.809v-0.381h-0.816v-0.387h-0.816  v-0.381h-0.808v-0.381h-0.808v-0.383h-0.817v-0.385h-0.816v-0.383h-0.808v-0.385h-49.354v158.646h0.819v0.381h0.808v0.386h0.816  v0.383h0.809v0.381h0.808v0.388h0.816v0.381h0.808v0.381h0.808v0.388h0.825v0.381h0.809v0.381h0.808v0.388h0.816v0.377h0.808v0.385  h0.809v0.383h0.816v0.381h0.808v0.388h0.816v0.381h0.817v0.381h0.808v0.384h0.816v0.385h0.808v0.383h0.808v0.382h0.817v0.385h0.808  v0.384h0.816v0.381h0.808v0.381h0.819v0.387h0.808v0.377h0.816v0.386h0.808v0.383h0.817v0.381h0.808v0.383h0.808v0.386h0.816v0.381  h0.816v0.383h0.809v0.386h0.816v0.383h0.808v0.386h0.808v0.381h0.817v0.379h0.816v0.39h0.808v0.381h0.808v0.379h0.817v0.385h0.808  v0.384h0.816v0.385h0.808v0.381h0.816v0.383h0.809v0.381h0.816v0.386h0.808v0.384h0.808v0.381h0.819v0.383h0.808v0.385h0.816v0.381  h0.808v0.384h0.817v0.381h0.816v0.386h0.808v0.383h0.808v0.381h0.816v0.383h0.817v0.386h0.808v0.381h0.808v0.383h0.816v0.386h0.809  v0.381h0.808v0.383h0.816v0.381h0.816v0.388h0.809v0.381h0.816v0.381h0.808v0.384h0.808v0.381h0.816v0.385h0.816v0.383h0.809v0.381  h0.808v0.388h0.819v0.381h0.808v0.382h0.808v0.383h0.816v0.385h0.816v0.381h0.809v0.384h0.816v0.385h0.808v0.384h0.816v0.381h0.808  v0.381h0.809v0.383h0.816v0.386h0.816v0.388h0.808v0.381h0.808v0.376h0.817v0.388h0.808v0.381h0.816v0.381h0.808v0.383h0.817v0.386  h0.808v0.386h0.816v0.378h0.808v0.386h0.816v0.383h0.809v0.381h0.818v0.386h0.808v0.383h0.817v0.381h0.808v0.388h0.808v0.381h0.816  v0.381h0.816v0.384h0.809v0.385h0.808v0.381h0.816v0.384h0.808v0.381h0.817v0.387h0.808v0.381h0.816v0.382h0.808v0.383h0.817v0.386  h0.808v0.381h0.816v0.383h0.808v0.381h0.816v0.388h0.809v0.381h0.808v0.381h0.816v0.383h0.816v0.386h0.808v0.381h0.811v0.383h0.816  v0.386h0.816v0.383h0.809v0.381h0.808v0.381h0.816v0.384h0.808v0.385h0.816v0.381h0.809v0.383h0.816v0.386h0.808v0.383h0.816v0.382  h0.808v0.381h0.817v0.387h0.808v0.381h0.816v0.381h0.809v0.388h0.808v0.381h0.816v0.384h0.808v0.381h0.816v0.381h0.809v0.388h0.816  v0.385h0.808v0.381h0.816v0.379h0.811v0.386h0.816v0.383h0.808v0.381h0.808v0.381h0.817v0.388h0.816v0.386h0.808v0.376h0.808v0.388  h0.816v0.381h0.817v0.383h0.808v0.386h0.808v0.376h0.816v0.388h0.808v0.386h0.817v0.381h0.808v0.383h0.816v0.381h0.816v0.388h0.809  v0.377h0.808v0.385h0.816v0.384h0.808v0.385h0.816v0.383h0.809v0.382h0.818v0.381h0.808v0.388h0.809v0.381h0.816v0.381h0.808v0.383  h0.816v0.385h0.809v0.382h0.816v0.383h0.808v0.381h0.816v0.388h0.808v0.381h0.817v0.381h0.808v0.388h0.816v0.381h0.808v0.383h0.808  v0.381h0.817v0.381h0.816v0.388h0.808v0.381h0.808v0.381h0.817v0.388h0.816v0.381h0.808v0.381h0.808v0.384h0.816v0.385h0.809v0.383  h0.818v0.381h0.808v0.382h0.817v0.387h0.808v0.382h0.816v0.383h0.808v0.381h0.816v0.381h0.809v0.392h0.808v0.377h0.816v0.381h0.808  v0.388h0.816v0.381h0.817v0.381h0.808v0.383h0.808v0.386h0.816v0.383h0.809v0.386h0.816v0.381h0.808v0.383h0.816v0.386h0.809v0.378  h0.808v0.381h0.816v0.386h0.816v0.388h0.808v0.381h0.819v0.381h0.808v0.383h0.816v0.381h0.809v0.384h0.808v0.385h0.816v0.381h0.808  v0.388h0.816v0.381h0.809v0.381h0.816v0.384h0.808v0.385h0.816v0.384h0.808v0.376h0.817v0.39h0.808v0.383h0.816v0.382h0.808v0.381  h0.817v0.383h0.808v0.386h0.808v0.378h0.816v0.386h0.816v0.385h0.809v0.384h0.808v0.381h0.816v0.381h0.808v0.383h0.819v0.386h0.808  v0.383h0.816v0.386h0.809v0.381h0.816v0.383h0.808v0.381h0.816v0.381h0.808v0.384h0.817v0.385h0.808v0.383h0.816v0.382h0.808v0.385  h0.817v0.384h0.808v0.381h0.808v0.381h0.816v0.383h0.808v0.385h0.817v0.384h0.808v0.385h0.816v0.382h0.808v0.383h0.816v0.381h0.809  v0.383h0.816v0.381h0.808v0.386h0.819v0.388h0.808v0.381h0.808v0.381h0.816v0.383h0.816v0.381h0.809v0.386h0.808v0.383h0.816v0.381  h0.808v0.388h0.816v0.381h0.809v0.381h0.816v0.383h0.808v0.386h0.816v0.383h0.809v0.381h0.816v0.382h0.808v0.387h0.816v0.381h0.809  v0.381h0.816v0.384h0.808v0.381h0.808v0.388h0.816v0.381h0.817v0.385h0.808v0.384h0.808v0.381h0.819v0.381h0.808v0.383h0.816v0.381  h0.808v0.388h0.816v0.385h0.809v0.382h0.816v0.383h0.808v0.381h0.816v0.381h0.808v0.383h0.817v0.386h0.808v0.383h0.816v0.386h0.808  v0.381h0.809v0.383h0.816v0.381h0.816v0.381h0.808v0.388h0.809v0.381h0.816v0.384h0.808v0.381h0.816v0.385h0.808v0.384h0.817v0.381  h0.808v0.381h0.818v0.387h0.809v0.382h0.816v0.383h0.808v0.386h0.816v0.381h0.808v0.383h0.809v0.381h0.816v0.381h0.816v0.388h0.808  v0.385h0.808v0.384h0.817v0.381h0.808v0.381h0.816v0.383h0.808v0.381h0.817v0.388h0.808v0.381h0.816v0.381h0.808v0.388h0.462  C674.707,488.296,718.245,417.705,729.235,336.761z" fill="#29235C" opacity="0.2"/><g><path d="M329.095,243.438h49.354v158.647h-49.354V243.438z M353.786,164.578c15.775,0,28.576,12.809,28.576,28.594   c0,15.776-12.801,28.587-28.576,28.587c-15.84,0-28.605-12.812-28.605-28.587C325.181,177.387,337.946,164.578,353.786,164.578" fill="#FFFFFF"/><path d="M409.379,243.438h47.264v21.689h0.675c6.579-12.475,22.675-25.621,46.662-25.621   c49.92,0,59.144,32.848,59.144,75.576v87.003h-49.289v-77.148c0-18.403-0.329-42.072-25.639-42.072   c-25.647,0-29.564,20.054-29.564,40.75v78.471h-49.252V243.438z" fill="#FFFFFF"/></g></svg>