<svg id="Layer_1" enable-background="new 0 0 512 512" height="512" viewBox="0 0 512 512" width="512" xmlns="http://www.w3.org/2000/svg"><g><path d="m484.333 209.904h-80.021l-83.29-129.09c-1.24-1.921-3.289-3.172-5.564-3.397-2.275-.229-4.529.6-6.122 2.241l-148.62 153.214-37.618-149.635c-.838-3.334-3.836-5.671-7.274-5.671h-83.583c-4.142 0-7.5 3.358-7.5 7.5s3.358 7.5 7.5 7.5h77.735l39.476 157.021c.663 2.639 2.704 4.711 5.331 5.416.643.172 1.294.256 1.942.256 2.001 0 3.953-.802 5.384-2.278l151.425-156.106 80.39 124.596c1.381 2.141 3.755 3.434 6.302 3.434h84.107c4.142 0 7.5-3.358 7.5-7.5s-3.358-7.501-7.5-7.501z" fill="#43809f"/><path d="m398.68 375.872h-285.628l17.729-53.231c2.102-6.288 8.159-10.549 14.989-10.549h220.459c6.83 0 12.888 4.261 14.989 10.549z" fill="#29cef6"/><path d="m381.219 322.642c-2.102-6.288-8.159-10.549-14.989-10.549h-30.905c6.83 0 12.888 4.261 14.989 10.549l17.462 53.231h30.905z" fill="#22b5ed"/><path d="m377.572 485h-243.144c-12.511 0-22.653-10.142-22.653-22.653v-78.199c0-12.511 10.142-22.653 22.653-22.653h243.144c12.511 0 22.653 10.142 22.653 22.653v78.199c0 12.511-10.142 22.653-22.653 22.653z" fill="#a9dbf5"/><path d="m377.561 361.494h-30.905c12.517 0 22.664 10.137 22.664 22.643v78.22c0 12.505-10.147 22.643-22.664 22.643h30.905c12.517 0 22.664-10.137 22.664-22.643v-78.22c0-12.505-10.147-22.643-22.664-22.643z" fill="#88c3e0"/><path d="m142.68 450.005v-53.515c0-2.275 1.844-4.119 4.119-4.119h218.402c2.275 0 4.119 1.844 4.119 4.119v53.515c0 2.275-1.844 4.119-4.119 4.119h-218.402c-2.275 0-4.119-1.844-4.119-4.119z" fill="#43809f"/><path d="m190.069 425.306h-.015c-8.53 0-15.445-6.915-15.445-15.445v-17.489h30.905v17.489c0 8.529-6.915 15.445-15.445 15.445z" fill="#f78e36"/><path d="m241.585 425.306h-.015c-8.53 0-15.445-6.915-15.445-15.445v-17.489h30.905v17.489c0 8.529-6.915 15.445-15.445 15.445z" fill="#f78e36"/><path d="m481.263 120.544h-107.823c-2.581 0-4.979 1.327-6.352 3.512l-74.274 118.291-92.878-195.813c-1.172-2.47-3.595-4.107-6.324-4.272-2.726-.167-5.332 1.168-6.792 3.479l-79.177 125.286h-76.643c-4.142 0-7.5 3.358-7.5 7.5s3.358 7.5 7.5 7.5h80.774c2.573 0 4.966-1.318 6.34-3.493l74.107-117.263 92.899 195.856c1.173 2.474 3.602 4.111 6.335 4.272.148.009.295.013.443.013 2.569 0 4.973-1.319 6.35-3.512l79.339-126.357h103.676c4.142 0 7.5-3.358 7.5-7.5s-3.358-7.499-7.5-7.499z" fill="#5297ba"/><ellipse cx="192.129" cy="48.613" fill="#ffc328" rx="21.634" ry="21.613"/><ellipse cx="293.087" cy="260.631" fill="#7be492" rx="21.634" ry="21.613"/><ellipse cx="490.366" cy="217.404" fill="#f78e36" rx="21.634" ry="21.613"/><ellipse cx="21.634" cy="85.065" fill="#ffc328" rx="21.634" ry="21.613"/><g fill="#f78e36"><ellipse cx="314.72" cy="84.88" rx="21.634" ry="21.613"/><ellipse cx="156.725" cy="247.758" rx="21.634" ry="21.613"/><ellipse cx="21.634" cy="178.294" rx="21.634" ry="21.613"/></g><ellipse cx="490.366" cy="127.863" fill="#7be492" rx="21.634" ry="21.613"/></g></svg>