<svg id="Capa_1" enable-background="new 0 0 511.982 511.982" height="512" viewBox="0 0 511.982 511.982" width="512" xmlns="http://www.w3.org/2000/svg"><g><path d="m398.212 474.061h-251.275c-77.009 0-139.437-62.428-139.437-139.437v-251.275c0-25.09 20.339-45.428 45.428-45.428h345.284c25.09 0 45.428 20.339 45.428 45.428v345.284c.001 25.089-20.338 45.428-45.428 45.428z" fill="#f7ef87"/><path d="m443.641 83.349c0-2.865-.277-5.664-.785-8.381-.743-.026-1.485-.054-2.231-.054-16.583 0-32.173 6.457-43.898 18.183l-188.283 188.282c-14.598 14.598-24.297 33.044-28.05 53.345l-7.776 42.075c-2.789 15.087 1.232 30.496 11.033 42.275 9.83 11.814 24.236 18.589 39.526 18.59h.002c3.145 0 6.319-.292 9.435-.868l42.075-7.777c20.3-3.752 38.747-13.452 53.345-28.049l115.607-115.607z" fill="#eed076"/><g><g><g><g><ellipse cx="142.005" cy="147.775" fill="#e8899e" rx="30.834" ry="24.555"/></g><g><ellipse cx="309.135" cy="147.775" fill="#e8899e" rx="30.834" ry="24.555"/></g></g></g></g><g><path d="m354.588 176.458h109.127v47.608h-109.127z" fill="#8ea3e2" transform="matrix(.707 .707 -.707 .707 261.444 -230.658)"/><path d="m495.103 146.104-31.794-31.794c-12.529-12.529-32.841-12.529-45.37 0l-30.538 30.538 77.164 77.164 30.538-30.538c12.529-12.529 12.529-32.842 0-45.37z" fill="#e8899e"/><path d="m269.237 399.519-42.075 7.777c-14.819 2.739-27.783-10.225-25.044-25.044l7.777-42.075c2.632-14.239 9.523-27.345 19.762-37.584l124.08-124.08 77.164 77.164-124.08 124.08c-10.239 10.239-23.345 17.13-37.584 19.762z" fill="#fff"/><path d="m247.606 333.726 12.917 4.663c4.888 1.764 8.737 5.613 10.501 10.501l4.663 12.917c1.764 4.888 5.613 8.737 10.501 10.501l20.633 7.448 124.08-124.08-77.164-77.164-124.08 124.08 7.448 20.633c1.764 4.888 5.613 8.737 10.501 10.501z" fill="#a3defe"/><path d="m292.443 239.806-62.786 62.786 7.448 20.633c1.764 4.888 5.613 8.736 10.501 10.501l12.917 4.663c4.888 1.764 8.737 5.613 10.501 10.501l4.663 12.917c1.764 4.888 5.613 8.737 10.501 10.501l20.633 7.448 14.899-14.899c-29.243-30.324-33.786-85.266-29.277-125.051z" fill="#7acefa"/><path d="m208.274 348.944-6.156 33.307c-2.739 14.819 10.225 27.783 25.044 25.044l33.307-6.156z" fill="#4e5660"/></g><path d="m7.5 334.624c0 77.009 62.428 139.437 139.437 139.437h41.537c-28.183 0-51.03-22.847-51.03-51.03v-43.672c0-19.463-15.778-35.241-35.241-35.241h-43.673c-28.183 0-51.03-22.847-51.03-51.03z" fill="#eed076"/><path d="m372.379 466.561h-183.906c-24.002 0-43.53-19.528-43.53-43.53v-43.672c0-23.567-19.173-42.741-42.741-42.741h-43.672c-24.002 0-43.53-19.527-43.53-43.53v-209.739c0-15.538 9.305-29.344 23.706-35.173 3.84-1.554 5.692-5.927 4.138-9.767-1.555-3.839-5.924-5.692-9.767-4.138-20.093 8.134-33.077 27.398-33.077 49.078v251.276c0 81.021 65.915 146.936 146.936 146.936h225.443c4.142 0 7.5-3.358 7.5-7.5s-3.358-7.5-7.5-7.5zm-225.443 0c-72.75 0-131.936-59.186-131.936-131.936v-2.46c10.723 11.933 26.262 19.454 43.53 19.454h43.672c15.296 0 27.741 12.444 27.741 27.741v43.672c0 17.268 7.521 32.808 19.454 43.53h-2.461zm140.14-343.06c0-3.532 2.874-6.406 6.406-6.406s6.406 2.874 6.406 6.406c0 4.142 3.358 7.5 7.5 7.5s7.5-3.358 7.5-7.5c0-11.803-9.603-21.406-21.406-21.406s-21.406 9.603-21.406 21.406c0 4.142 3.358 7.5 7.5 7.5s7.5-3.358 7.5-7.5zm-61.506 15.64c8.795 0 17.16-3.81 22.948-10.451 2.721-3.123 2.396-7.86-.727-10.582-3.123-2.721-7.861-2.396-10.582.727-2.939 3.373-7.181 5.307-11.64 5.307s-8.701-1.934-11.64-5.307c-2.721-3.123-7.459-3.447-10.582-.727-3.122 2.722-3.448 7.459-.727 10.582 5.791 6.642 14.155 10.451 22.95 10.451zm-58.095-15.306v-12c0-4.142-3.358-7.5-7.5-7.5s-7.5 3.358-7.5 7.5v12c0 4.142 3.358 7.5 7.5 7.5s7.5-3.357 7.5-7.5zm332.932 16.965-31.794-31.794c-4.927-4.927-10.928-8.384-17.472-10.176v-15.481c0-29.185-23.744-52.928-52.928-52.928h-326c-4.142 0-7.5 3.358-7.5 7.5s3.358 7.5 7.5 7.5h326c20.914 0 37.928 17.015 37.928 37.928v14.324c-8.876.995-17.096 4.926-23.504 11.334-10.706 10.706-94.058 94.057-105.553 105.553h-209.334c-4.142 0-7.5 3.358-7.5 7.5s3.358 7.5 7.5 7.5h194.333l-45.075 45.075h-113.843c-4.142 0-7.5 3.358-7.5 7.5s3.358 7.5 7.5 7.5h98.843c-3.677 4.62-23.838 18.605-29.488 49.179-2.878 15.572-5.178 28.013-7.777 42.075-3.682 19.919 13.76 37.485 33.782 33.782 5.126-.947 36.678-6.779 42.075-7.777 16.167-2.988 30.441-10.751 41.524-21.834l124.017-124.017v167.59c0 17.736-12.043 32.927-29.288 36.941-4.034.939-6.543 4.971-5.604 9.005.942 4.047 4.985 6.54 9.005 5.604 24.073-5.604 40.886-26.803 40.886-51.551v-182.59l49.266-49.266c15.434-15.432 15.434-40.543.001-55.976zm-274.609 259.12c-9.666 1.784-18.092-6.643-16.306-16.306l3.564-19.282 32.023 32.024zm37.186-6.873-46.618-46.618c.735-2.733 1.456-15.189 10.696-28.936l2.988 8.278c2.53 7.008 8.001 12.479 15.009 15.009l12.918 4.663c2.798 1.01 4.982 3.194 5.993 5.993l4.663 12.917c2.53 7.009 8.001 12.479 15.009 15.009l8.278 2.988c-13.702 9.211-26.107 9.936-28.936 10.697zm41.902-21.963-16.152-5.831c-2.798-1.01-4.982-3.194-5.993-5.993l-4.663-12.916c-2.53-7.009-8-12.48-15.009-15.009l-12.917-4.663c-2.799-1.011-4.983-3.195-5.994-5.993l-5.831-16.152c14.585-14.585 98.921-98.921 115.408-115.408l66.557 66.558zm126.015-126.014-66.557-66.558 23.058-23.058 66.557 66.558c-7.785 7.784-12.351 12.351-23.058 23.058zm58.899-58.9-25.235 25.235-66.557-66.558 25.235-25.235c9.606-9.606 25.155-9.608 34.763 0l31.794 31.794c9.585 9.585 9.585 25.18 0 34.764zm-153.776 76.612-29.878 29.877c-2.929 2.929-2.929 7.678 0 10.606 2.928 2.929 7.677 2.929 10.606 0l29.878-29.878c2.929-2.929 2.929-7.678 0-10.606-2.927-2.928-7.676-2.928-10.606.001z"/></g></svg>