<svg id="Layer_1" viewBox="0 0 512 512" xmlns="http://www.w3.org/2000/svg" data-name="Layer 1"><g fill-rule="evenodd"><path d="m320.759 142.686q.246-1.149.52-2.3a123.394 123.394 0 0 1 32.321-58.25c12.836-12.768 28.441-22.018 45.617-25.714l-5.306-17.649a7.262 7.262 0 0 1 10.13-8.608l87.452 36.008a7.254 7.254 0 0 1 3.069 11.027c-18.844 25.125-37.387 50.581-56.06 75.845a7.25 7.25 0 0 1 -12.858-2.56h-.011l-6.042-24.075c-19.338.147-38 5.687-53.04 16.125l-.218.152h4.318a16.549 16.549 0 0 1 16.52 16.519v39.3a16.544 16.544 0 0 1 -.14 2.147 50.226 50.226 0 0 1 45.911 49.906v47.949a28.852 28.852 0 0 1 17.833 26.579v32.873a28.852 28.852 0 0 1 -17.833 26.578v47.95a50.207 50.207 0 0 1 -50.08 50.08h-316.771a50.207 50.207 0 0 1 -50.08-50.08v-253.634a36.254 36.254 0 0 1 36.168-36.168h67.893q-.219-3.218-.22-6.489a95.174 95.174 0 0 1 190.347 0q0 3.27-.22 6.489z"/><path d="m424.071 308.28h-87.266a14.251 14.251 0 0 0 -14.189 14.189v32.873a14.251 14.251 0 0 0 14.189 14.189h87.266a14.25 14.25 0 0 0 14.189-14.189v-32.873a14.25 14.25 0 0 0 -14.189-14.189zm-63.753 24.854a8.166 8.166 0 1 1 -5.772-2.39 8.137 8.137 0 0 1 5.772 2.39zm-5.772-16.934a22.708 22.708 0 1 1 -16.057 6.651 22.632 22.632 0 0 1 16.057-6.651z" fill="#b06647"/><path d="m168.341 197.862h97.429a80.678 80.678 0 1 0 -97.429 0zm41.442-117.962a7.273 7.273 0 1 1 14.545 0v9.472a26.273 26.273 0 0 1 18.98 25.231 7.273 7.273 0 0 1 -14.546 0 11.707 11.707 0 1 0 -23.413 0c0 7.837 7.274 10.327 14.445 12.781 11.84 4.053 23.514 8.049 23.514 25.178a26.276 26.276 0 0 1 -18.98 25.231v9.471a7.273 7.273 0 1 1 -14.545 0v-9.471a26.276 26.276 0 0 1 -18.98-25.231 7.273 7.273 0 1 1 14.546 0 11.707 11.707 0 1 0 23.413 0c0-6.763-6.765-9.079-13.628-11.428-12.077-4.134-24.334-8.328-24.334-26.534a26.276 26.276 0 0 1 18.98-25.232z" fill="#fcbb31"/><path d="m124.225 154.617h-70.017a21.623 21.623 0 0 0 0 43.245h92.692a95.02 95.02 0 0 1 -22.672-43.245z" fill="#b06647"/><path d="m336.805 293.735h83.621v-45.794a35.659 35.659 0 0 0 -35.534-35.534h-330.684a35.957 35.957 0 0 1 -21.622-7.214v224.678a35.659 35.659 0 0 0 35.535 35.534h316.771a35.659 35.659 0 0 0 35.534-35.534v-45.795h-83.621a28.8 28.8 0 0 1 -28.735-28.734v-32.873a28.8 28.8 0 0 1 28.735-28.734z" fill="#ce9d76"/><path d="m337.456 141.128a91.751 91.751 0 0 0 -2.1 12.59 91.759 91.759 0 0 1 24.984-25.731c18.913-13.128 42.638-19.574 66.83-18.6a7.265 7.265 0 0 1 7.188 5.5l3.652 14.554 41.4-56.013-65.164-26.834c1.025 3.411 3.211 8.927 3.56 12.327a7.256 7.256 0 0 1 -6.478 7.955c-17.077 1.751-32.779 10.3-45.469 22.93a108.647 108.647 0 0 0 -28.403 51.322z" fill="#52c037"/><path d="m337.451 185.173a7.264 7.264 0 0 1 -14.243.476 102.821 102.821 0 0 1 -2.733-23.871q.007-3.574.259-7.161h-10.848a95.045 95.045 0 0 1 -22.672 43.245h85.467a2 2 0 0 0 1.974-1.974v-39.3a2 2 0 0 0 -1.974-1.974h-20.07a76.849 76.849 0 0 0 -15.16 30.559z" fill="#b06647"/></g></svg>