<?xml version="1.0" encoding="UTF-8" standalone="no"?>
<!-- Created with Inkscape (http://www.inkscape.org/) -->

<svg
   version="1.1"
   id="svg861"
   xml:space="preserve"
   width="682.66669"
   height="682.66669"
   viewBox="0 0 682.66669 682.66669"
   xmlns="http://www.w3.org/2000/svg"
   xmlns:svg="http://www.w3.org/2000/svg"><defs
     id="defs865"><clipPath
       clipPathUnits="userSpaceOnUse"
       id="clipPath875"><path
         d="M 0,512 H 512 V 0 H 0 Z"
         id="path873" /></clipPath></defs><g
     id="g867"
     transform="matrix(1.3333333,0,0,-1.3333333,0,682.66667)"><g
       id="g869"><g
         id="g871"
         clip-path="url(#clipPath875)"><g
           id="g877"
           transform="translate(176.9302,479.272)"><path
             d="M 0,0 C 0,13.933 -11.295,25.228 -25.228,25.228 H -132.912 C -146.845,25.228 -158.14,13.933 -158.14,0 v -446.544 c 0,-13.933 11.295,-25.228 25.228,-25.228 h 107.684 c 13.933,0 25.228,11.295 25.228,25.228 H 23.581 L 23.581,0 Z"
             style="fill:#0e80ac;fill-opacity:1;fill-rule:nonzero;stroke:none"
             id="path879" /></g><g
           id="g881"
           transform="translate(151.7021,504.5)"><path
             d="m 0,0 h -34.434 c 13.933,0 25.228,-11.295 25.228,-25.228 V -471.772 C -9.206,-485.705 -20.501,-497 -34.434,-497 H 0 c 13.933,0 25.228,11.295 25.228,25.228 V -25.228 C 25.228,-11.295 13.933,0 0,0"
             style="fill:#057195;fill-opacity:1;fill-rule:nonzero;stroke:none"
             id="path883" /></g><g
           id="g885"
           transform="translate(335.0698,479.272)"><path
             d="M 0,0 C 0,13.933 -11.295,25.228 -25.228,25.228 H -132.912 C -146.845,25.228 -158.14,13.933 -158.14,0 v -446.544 c 0,-13.933 11.295,-25.228 25.228,-25.228 h 107.684 c 13.933,0 25.228,11.295 25.228,25.228 H 23.581 L 23.581,0 Z"
             style="fill:#fd7e42;fill-opacity:1;fill-rule:nonzero;stroke:none"
             id="path887" /></g><g
           id="g889"
           transform="translate(309.8418,504.5)"><path
             d="M 0,0 H -34.434 C -20.5,0 -9.206,-11.295 -9.206,-25.228 V -471.772 C -9.206,-485.705 -20.5,-497 -34.434,-497 H 0 c 13.933,0 25.228,11.295 25.228,25.228 V -25.228 C 25.228,-11.295 13.933,0 0,0"
             style="fill:#fa6931;fill-opacity:1;fill-rule:nonzero;stroke:none"
             id="path891" /></g><g
           id="g893"
           transform="translate(211.3638,275.2656)"><path
             d="m 0,0 v 184.312 c 0,6.203 5.028,11.23 11.23,11.23 h 66.812 c 6.203,0 11.23,-5.027 11.23,-11.23 V 0 c 0,-6.202 -5.027,-11.229 -11.23,-11.229 H 11.23 C 5.028,-11.229 0,-6.202 0,0"
             style="fill:#f1faff;fill-opacity:1;fill-rule:nonzero;stroke:none"
             id="path895" /></g><g
           id="g897"
           transform="translate(467.9814,7.5)"><path
             d="m 0,0 h -107.684 c -13.933,0 -25.228,11.295 -25.228,25.228 v 446.544 c 0,13.933 11.295,25.228 25.228,25.228 H 0 c 13.933,0 25.228,-11.295 25.228,-25.228 V 25.228 C 25.228,11.295 13.933,0 0,0"
             style="fill:#fdcb82;fill-opacity:1;fill-rule:nonzero;stroke:none"
             id="path899" /></g><g
           id="g901"
           transform="translate(467.9814,504.5)"><path
             d="m 0,0 h -34.434 c 13.933,0 25.228,-11.295 25.228,-25.228 V -471.772 C -9.206,-485.705 -20.501,-497 -34.434,-497 H 0 c 13.933,0 25.228,11.295 25.228,25.228 V -25.228 C 25.228,-11.295 13.933,0 0,0"
             style="fill:#fbbe66;fill-opacity:1;fill-rule:nonzero;stroke:none"
             id="path903" /></g><g
           id="g905"
           transform="translate(369.5039,275.2656)"><path
             d="m 0,0 v 184.312 c 0,6.203 5.027,11.23 11.229,11.23 h 66.813 c 6.202,0 11.23,-5.027 11.23,-11.23 V 0 c 0,-6.202 -5.028,-11.229 -11.23,-11.229 H 11.229 C 5.027,-11.229 0,-6.202 0,0"
             style="fill:#f1faff;fill-opacity:1;fill-rule:nonzero;stroke:none"
             id="path907" /></g><g
           id="g909"
           transform="translate(53.2241,275.2656)"><path
             d="m 0,0 v 184.312 c 0,6.203 5.028,11.23 11.229,11.23 h 66.813 c 6.203,0 11.23,-5.027 11.23,-11.23 V 0 c 0,-6.202 -5.027,-11.229 -11.23,-11.229 H 11.229 C 5.028,-11.229 0,-6.202 0,0"
             style="fill:#f1faff;fill-opacity:1;fill-rule:nonzero;stroke:none"
             id="path911" /></g><g
           id="g913"
           transform="translate(81.4863,429.6001)"><path
             d="M 0,0 H 32.748"
             style="fill:none;stroke:#000000;stroke-width:15;stroke-linecap:round;stroke-linejoin:round;stroke-miterlimit:10;stroke-dasharray:none;stroke-opacity:1"
             id="path915" /></g><g
           id="g917"
           transform="translate(81.4863,389.6553)"><path
             d="M 0,0 H 32.748"
             style="fill:none;stroke:#000000;stroke-width:15;stroke-linecap:round;stroke-linejoin:round;stroke-miterlimit:10;stroke-dasharray:none;stroke-opacity:1"
             id="path919" /></g><g
           id="g921"
           transform="translate(239.6265,429.6001)"><path
             d="M 0,0 H 32.747"
             style="fill:none;stroke:#000000;stroke-width:15;stroke-linecap:round;stroke-linejoin:round;stroke-miterlimit:10;stroke-dasharray:none;stroke-opacity:1"
             id="path923" /></g><g
           id="g925"
           transform="translate(239.6265,389.6553)"><path
             d="M 0,0 H 32.747"
             style="fill:none;stroke:#000000;stroke-width:15;stroke-linecap:round;stroke-linejoin:round;stroke-miterlimit:10;stroke-dasharray:none;stroke-opacity:1"
             id="path927" /></g><g
           id="g929"
           transform="translate(397.7661,429.6001)"><path
             d="M 0,0 H 32.747"
             style="fill:none;stroke:#000000;stroke-width:15;stroke-linecap:round;stroke-linejoin:round;stroke-miterlimit:10;stroke-dasharray:none;stroke-opacity:1"
             id="path931" /></g><g
           id="g933"
           transform="translate(397.7661,389.6553)"><path
             d="M 0,0 H 32.747"
             style="fill:none;stroke:#000000;stroke-width:15;stroke-linecap:round;stroke-linejoin:round;stroke-miterlimit:10;stroke-dasharray:none;stroke-opacity:1"
             id="path935" /></g><g
           id="g937"
           transform="translate(176.9302,479.272)"><path
             d="M 0,0 C 0,13.933 -11.295,25.228 -25.228,25.228 H -132.912 C -146.845,25.228 -158.14,13.933 -158.14,0 v -446.544 c 0,-13.933 11.295,-25.228 25.228,-25.228 h 107.684 c 13.933,0 25.228,11.295 25.228,25.228"
             style="fill:none;stroke:#000000;stroke-width:15;stroke-linecap:round;stroke-linejoin:round;stroke-miterlimit:10;stroke-dasharray:none;stroke-opacity:1"
             id="path939" /></g><g
           id="g941"
           transform="translate(335.0698,479.272)"><path
             d="M 0,0 C 0,13.933 -11.295,25.228 -25.228,25.228 H -132.912 C -146.845,25.228 -158.14,13.933 -158.14,0 v -446.544 c 0,-13.933 11.295,-25.228 25.228,-25.228 h 107.684 c 13.933,0 25.228,11.295 25.228,25.228"
             style="fill:none;stroke:#000000;stroke-width:15;stroke-linecap:round;stroke-linejoin:round;stroke-miterlimit:10;stroke-dasharray:none;stroke-opacity:1"
             id="path943" /></g><g
           id="g945"
           transform="translate(211.3638,275.2656)"><path
             d="m 0,0 v 184.312 c 0,6.203 5.028,11.23 11.23,11.23 h 66.812 c 6.203,0 11.23,-5.027 11.23,-11.23 V 0 c 0,-6.202 -5.027,-11.229 -11.23,-11.229 H 11.23 C 5.028,-11.229 0,-6.202 0,0 Z"
             style="fill:none;stroke:#000000;stroke-width:15;stroke-linecap:round;stroke-linejoin:round;stroke-miterlimit:10;stroke-dasharray:none;stroke-opacity:1"
             id="path947" /></g><g
           id="g949"
           transform="translate(467.9814,7.5)"><path
             d="m 0,0 h -107.684 c -13.933,0 -25.228,11.295 -25.228,25.228 v 446.544 c 0,13.933 11.295,25.228 25.228,25.228 H 0 c 13.933,0 25.228,-11.295 25.228,-25.228 V 25.228 C 25.228,11.295 13.933,0 0,0 Z"
             style="fill:none;stroke:#000000;stroke-width:15;stroke-linecap:round;stroke-linejoin:round;stroke-miterlimit:10;stroke-dasharray:none;stroke-opacity:1"
             id="path951" /></g><g
           id="g953"
           transform="translate(369.5039,332.6816)"><path
             d="m 0,0 v 126.896 c 0,6.203 5.027,11.23 11.229,11.23 h 66.813 c 6.202,0 11.23,-5.027 11.23,-11.23 V -57.416 c 0,-6.202 -5.028,-11.23 -11.23,-11.23 H 11.229 C 5.027,-68.646 0,-63.618 0,-57.416 v 22.356"
             style="fill:none;stroke:#000000;stroke-width:15;stroke-linecap:round;stroke-linejoin:round;stroke-miterlimit:10;stroke-dasharray:none;stroke-opacity:1"
             id="path955" /></g><g
           id="g957"
           transform="translate(53.2241,440.5269)"><path
             d="m 0,0 v 19.051 c 0,6.202 5.028,11.23 11.229,11.23 h 66.813 c 6.203,0 11.23,-5.028 11.23,-11.23 v -184.312 c 0,-6.202 -5.027,-11.23 -11.23,-11.23 H 11.229 c -6.201,0 -11.229,5.028 -11.229,11.23 v 129.852"
             style="fill:none;stroke:#000000;stroke-width:15;stroke-linecap:round;stroke-linejoin:round;stroke-miterlimit:10;stroke-dasharray:none;stroke-opacity:1"
             id="path959" /></g><g
           id="g961"
           transform="translate(148.6533,99.6797)"><path
             d="m 0,0 c 0,-28.052 -22.741,-50.793 -50.793,-50.793 -28.052,0 -50.793,22.741 -50.793,50.793 0,28.052 22.741,50.793 50.793,50.793 C -22.741,50.793 0,28.052 0,0"
             style="fill:#f1faff;fill-opacity:1;fill-rule:nonzero;stroke:none"
             id="path963" /></g><g
           id="g965"
           transform="translate(97.8604,76.5923)"><path
             d="m 0,0 c -12.73,0 -23.087,10.357 -23.087,23.087 0,12.731 10.357,23.087 23.087,23.087 12.73,0 23.087,-10.356 23.087,-23.087 C 23.087,10.357 12.73,0 0,0"
             style="fill:#3c5959;fill-opacity:1;fill-rule:nonzero;stroke:none"
             id="path967" /></g><g
           id="g969"
           transform="translate(306.793,99.6797)"><path
             d="m 0,0 c 0,-28.052 -22.741,-50.793 -50.793,-50.793 -28.052,0 -50.793,22.741 -50.793,50.793 0,28.052 22.741,50.793 50.793,50.793 C -22.741,50.793 0,28.052 0,0"
             style="fill:#f1faff;fill-opacity:1;fill-rule:nonzero;stroke:none"
             id="path971" /></g><g
           id="g973"
           transform="translate(256,76.5923)"><path
             d="m 0,0 c -12.73,0 -23.087,10.357 -23.087,23.087 0,12.731 10.357,23.087 23.087,23.087 12.73,0 23.087,-10.356 23.087,-23.087 C 23.087,10.357 12.73,0 0,0"
             style="fill:#3c5959;fill-opacity:1;fill-rule:nonzero;stroke:none"
             id="path975" /></g><g
           id="g977"
           transform="translate(464.9326,99.6797)"><path
             d="m 0,0 c 0,-28.052 -22.741,-50.793 -50.793,-50.793 -28.052,0 -50.793,22.741 -50.793,50.793 0,28.052 22.741,50.793 50.793,50.793 C -22.741,50.793 0,28.052 0,0"
             style="fill:#f1faff;fill-opacity:1;fill-rule:nonzero;stroke:none"
             id="path979" /></g><g
           id="g981"
           transform="translate(414.1396,76.5923)"><path
             d="m 0,0 c -12.73,0 -23.087,10.357 -23.087,23.087 0,12.731 10.357,23.087 23.087,23.087 12.73,0 23.087,-10.356 23.087,-23.087 C 23.087,10.357 12.73,0 0,0"
             style="fill:#3c5959;fill-opacity:1;fill-rule:nonzero;stroke:none"
             id="path983" /></g><g
           id="g985"
           transform="translate(148.6533,99.6797)"><path
             d="m 0,0 c 0,-28.052 -22.741,-50.793 -50.793,-50.793 -28.052,0 -50.793,22.741 -50.793,50.793 0,28.052 22.741,50.793 50.793,50.793 C -22.741,50.793 0,28.052 0,0 Z"
             style="fill:none;stroke:#000000;stroke-width:15;stroke-linecap:round;stroke-linejoin:round;stroke-miterlimit:10;stroke-dasharray:none;stroke-opacity:1"
             id="path987" /></g><g
           id="g989"
           transform="translate(97.8604,76.5923)"><path
             d="m 0,0 c -12.73,0 -23.087,10.357 -23.087,23.087 0,12.731 10.357,23.087 23.087,23.087 12.73,0 23.087,-10.356 23.087,-23.087 C 23.087,10.357 12.73,0 0,0 Z"
             style="fill:none;stroke:#000000;stroke-width:15;stroke-linecap:round;stroke-linejoin:round;stroke-miterlimit:10;stroke-dasharray:none;stroke-opacity:1"
             id="path991" /></g><g
           id="g993"
           transform="translate(306.793,99.6797)"><path
             d="m 0,0 c 0,-28.052 -22.741,-50.793 -50.793,-50.793 -28.052,0 -50.793,22.741 -50.793,50.793 0,28.052 22.741,50.793 50.793,50.793 C -22.741,50.793 0,28.052 0,0 Z"
             style="fill:none;stroke:#000000;stroke-width:15;stroke-linecap:round;stroke-linejoin:round;stroke-miterlimit:10;stroke-dasharray:none;stroke-opacity:1"
             id="path995" /></g><g
           id="g997"
           transform="translate(256,76.5923)"><path
             d="m 0,0 c -12.73,0 -23.087,10.357 -23.087,23.087 0,12.731 10.357,23.087 23.087,23.087 12.73,0 23.087,-10.356 23.087,-23.087 C 23.087,10.357 12.73,0 0,0 Z"
             style="fill:none;stroke:#000000;stroke-width:15;stroke-linecap:round;stroke-linejoin:round;stroke-miterlimit:10;stroke-dasharray:none;stroke-opacity:1"
             id="path999" /></g><g
           id="g1001"
           transform="translate(464.9326,99.6797)"><path
             d="m 0,0 c 0,-28.052 -22.741,-50.793 -50.793,-50.793 -28.052,0 -50.793,22.741 -50.793,50.793 0,28.052 22.741,50.793 50.793,50.793 C -22.741,50.793 0,28.052 0,0 Z"
             style="fill:none;stroke:#000000;stroke-width:15;stroke-linecap:round;stroke-linejoin:round;stroke-miterlimit:10;stroke-dasharray:none;stroke-opacity:1"
             id="path1003" /></g><g
           id="g1005"
           transform="translate(414.1396,76.5923)"><path
             d="m 0,0 c -12.73,0 -23.087,10.357 -23.087,23.087 0,12.731 10.357,23.087 23.087,23.087 12.73,0 23.087,-10.356 23.087,-23.087 C 23.087,10.357 12.73,0 0,0 Z"
             style="fill:none;stroke:#000000;stroke-width:15;stroke-linecap:round;stroke-linejoin:round;stroke-miterlimit:10;stroke-dasharray:none;stroke-opacity:1"
             id="path1007" /></g></g></g></g></svg>
