<svg id="Capa_1" enable-background="new 0 0 512 512" height="512" viewBox="0 0 512 512" width="512" xmlns="http://www.w3.org/2000/svg"><path d="m512 256c0 46.352-12.319 89.83-33.865 127.331-13.427 23.374-30.438 44.429-50.28 62.401-45.433 41.19-105.703 66.268-171.855 66.268s-126.422-25.078-171.854-66.267c-19.853-17.983-36.864-39.037-50.291-62.422-21.546-37.502-33.855-80.97-33.855-127.311s12.309-89.809 33.855-127.31c13.416-23.374 30.427-44.429 50.27-62.412 45.432-41.19 105.712-66.278 171.875-66.278s126.443 25.088 171.875 66.278c19.843 17.983 36.843 39.027 50.26 62.391 21.546 37.501 33.865 80.979 33.865 127.331z" fill="#5c5560"/><path d="m478.135 98.398v284.933c-13.427 23.374-30.438 44.429-50.28 62.401h-343.709c-19.853-17.983-36.864-39.037-50.291-62.422v-284.912c0-17.742 14.388-32.12 32.131-32.12h380.019c17.752 0 32.13 14.378 32.13 32.12z" fill="#f5b500"/><path d="m74.365 104.082h363.248v303.835h-363.248z" fill="#009e58"/><g fill="#5dbf90"><path d="m387.388 310.964v17.013h-104.57v-17.013c0-14.897 23.412-26.972 52.285-26.972 20.051 0 37.471 5.826 46.243 14.375 3.859 3.758 6.042 8.041 6.042 12.597z"/><circle cx="335.099" cy="244.349" r="22.783"/><path d="m228.718 310.964v17.013h-104.569v-17.013c0-14.897 23.412-26.972 52.285-26.972 20.051 0 37.471 5.826 46.243 14.375 3.858 3.758 6.041 8.041 6.041 12.597z"/><circle cx="176.431" cy="244.349" r="22.783"/></g><path d="m424.119 445.729h-91.826l-37.81-37.81 46.587-19.581 45.238 19.581z" fill="#efa400"/><g fill="#f7f7f7"><path d="m325.541 305.273v22.704h-139.546v-22.704c0-19.88 31.242-35.995 69.773-35.995 26.758 0 50.005 7.775 61.711 19.182 5.15 5.018 8.062 10.733 8.062 16.813z"/><circle cx="255.77" cy="216.377" r="30.407"/><path d="m294.484 388.336h91.826v19.58h-91.826z"/></g></svg>