<svg id="Layer_1" height="512" viewBox="0 0 512 512" width="512" xmlns="http://www.w3.org/2000/svg" xmlns:xlink="http://www.w3.org/1999/xlink" data-name="Layer 1"><linearGradient id="Blue_2" gradientUnits="userSpaceOnUse" x1="6" x2="506" y1="256" y2="256"><stop offset="0" stop-color="#2bc4f3"/><stop offset=".5" stop-color="#00aeee"/><stop offset="1" stop-color="#0095da"/></linearGradient><linearGradient id="linear-gradient" gradientUnits="userSpaceOnUse" x1="118.947" x2="416.803" y1="150.879" y2="448.734"><stop offset="0"/><stop offset="1" stop-opacity="0"/></linearGradient><circle cx="256" cy="256" fill="url(#Blue_2)" r="250"/><path d="m497.778 319.777-162.941-162.942c-17.456-20.149-44.275-32.086-75.983-32.086h-113.777v262.5l118.623 118.623c112.623-3.408 206.509-81.299 234.078-186.095z" fill="url(#linear-gradient)" opacity=".49"/><path d="m243.617 306.933h-26.217v80.318h-72.323v-262.5h113.777c56.592 0 97.614 38.025 97.614 92.9 0 32.213-15.737 58.61-41.667 74.135l52.122 95.468h-80.717zm-26.217-60.919h33.035c20.216 0 31.853-12.173 31.853-28.583s-11.637-28.418-31.853-28.418h-33.035z" fill="#fff"/></svg>