<svg id="Layer_1" enable-background="new 0 0 96 96" height="512" viewBox="0 0 96 96" width="512" xmlns="http://www.w3.org/2000/svg"><g><g><path d="m86 2h-16c-1.1044922 0-2 .8955078-2 2v88c0 1.1044922.8955078 2 2 2h16c1.1044922 0 2-.8955078 2-2v-88c0-1.1044922-.8955078-2-2-2z" fill="#90caf9"/><path d="m92 14h-16c-1.1044922 0-2 .8955078-2 2v10c0 1.1044922.8955078 2 2 2h16c1.1044922 0 2-.8955078 2-2v-10c0-1.1044922-.8955078-2-2-2z" fill="#ba68c8"/><path d="m92 41h-16c-1.1044922 0-2 .8955078-2 2v10c0 1.1044922.8955078 2 2 2h16c1.1044922 0 2-.8955078 2-2v-10c0-1.1044922-.8955078-2-2-2z" fill="#fdd835"/><path d="m92 68h-16c-1.1044922 0-2 .8955078-2 2v10c0 1.1044922.8955078 2 2 2h16c1.1044922 0 2-.8955078 2-2v-10c0-1.1044922-.8955078-2-2-2z" fill="#5c6bc0"/><path d="m78 2h-74c-1.1045694 0-2 .8954306-2 2v88c0 1.1045685.8954306 2 2 2h74z" fill="#e53935"/><circle cx="28" cy="45" fill="#fdd835" r="16"/><circle cx="54" cy="71" fill="#66bb6a" r="16"/><path d="m68 8h-56c-1.1044922 0-2 .8955078-2 2v14c0 1.1044922.8955078 2 2 2h56c1.1044922 0 2-.8955078 2-2v-14c0-1.1044922-.8955078-2-2-2z" fill="#90caf9"/><path d="m21.5185547 74.0683594c-.8745117-.2333984-1.7963867.1464844-2.2495117.9296875l-3.769043 6.5097656-3.769043-6.5097656c-.4536133-.7841797-1.375-1.1640625-2.2495117-.9296875-.8740234.234375-1.4814453 1.0273437-1.4814453 1.9316406v18h15v-18c0-.9042969-.6074219-1.6972656-1.4814453-1.9316406z" fill="#fdd835"/></g><path d="m45 45c0-9.3740234-7.6259766-17-17-17s-17 7.6259766-17 17 7.6259766 17 17 17 17-7.6259766 17-17zm-17 13c-7.168457 0-13-5.8320312-13-13s5.831543-13 13-13 13 5.8320312 13 13-5.831543 13-13 13zm8-19c0 1.1044922-.8955078 2-2 2h-.757019c.081665 2.0704346-.5576782 4.755188-2.8035889 7.2258911.3355103.1239014.6842041.2404785 1.062561.338562 1.0693359.2763672 1.7114258 1.3681641 1.434082 2.4375-.2333984.9003907-1.0454101 1.4980469-1.9345703 1.4980469-.1665039 0-.3349609-.0205078-.503418-.0644531-1.3758545-.3566284-2.5455322-.8591919-3.5480957-1.4337769-.8025513.4761353-1.6830444.9307861-2.6838379 1.3458862-.2504883.1035156-.5097656.1533203-.7651367.1533203-.784668 0-1.5288086-.4648438-1.8481445-1.234375-.4233398-1.0205078.0605469-2.1904297 1.0810547-2.6142578.3154907-.1308594.5911255-.2687378.8773193-.4047241-1.4553223-1.7022095-1.9765625-3.2371216-2.0155029-3.3579712-.3378906-1.0517578.2407227-2.1787109 1.2924805-2.5166016 1.0458984-.3369141 2.1655273.234375 2.5102539 1.2753906.0349121.0999756.4428101 1.2058716 1.5923462 2.385376 2.0921631-1.97583 2.3035278-3.9774169 2.2297363-5.0338134h-7.22052c-1.1044922 0-2-.8955078-2-2s.8955078-2 2-2h4c0-1.1044922.8955078-2 2-2s2 .8955078 2 2h4c1.1044922 0 2 .8955078 2 2zm18 15c-9.3740234 0-17 7.6259766-17 17s7.6259766 17 17 17 17-7.6259766 17-17-7.6259766-17-17-17zm0 30c-7.168457 0-13-5.8320312-13-13s5.831543-13 13-13 13 5.8320312 13 13-5.831543 13-13 13zm0-21.4824219c-3.8598633 0-7 2.8300781-7 6.3095703v8.1728516c0 1.1044922.8955078 2 2 2s2-.8955078 2-2v-3h6v3c0 1.1044922.8955078 2 2 2s2-.8955078 2-2v-8.1728516c0-3.4794922-3.1401367-6.3095703-7-6.3095703zm-3 7.4824219v-1.1728516c0-1.2519531 1.3740234-2.3095703 3-2.3095703s3 1.0576172 3 2.3095703v1.1728516zm41-42c1.0999756 0 2-.9000244 2-2v-10c0-1.1000366-.9000244-2-2-2h-4v-10c0-1.1044922-.8955078-2-2-2h-10-72c-1.1044922 0-2 .8955078-2 2v88c0 1.1044922.8955078 2 2 2h72 10c1.1044922 0 2-.8955078 2-2v-10h4c1.0999756 0 2-.9000244 2-2v-10c0-1.1000366-.9000244-2-2-2h-4v-13h4c1.0999756 0 2-.9000244 2-2v-10c0-1.1000366-.9000244-2-2-2h-4v-13zm-2-4h-12v-6h12zm-12 17v-13h1v13zm0 27v-13h1v13zm6-54h-1v-5c0-1.1044922-.8955078-2-2-2s-2 .8955078-2 2v5h-1v-8h6zm-78-8h68v84h-51v-14c0-.9042969-.6074219-1.6972656-1.4814453-1.9316406-.8759766-.2324219-1.796875.1464844-2.2495117.9296875l-3.769043 6.5097656-3.769043-6.5097656c-.453125-.7832031-1.3759766-1.1630859-2.2495117-.9296875-.8740234.234375-1.4814453 1.0273437-1.4814453 1.9316406v14h-2zm13 84h-7v-6.5537109l1.769043 3.0556641c.3579101.618164 1.0170898.9980468 1.730957.9980468s1.3730469-.3798828 1.730957-.9980469l1.769043-3.055664zm65 0h-6v-8h1v5c0 1.1044922.8955078 2 2 2s2-.8955078 2-2v-5h1zm6-12h-12v-6h12zm-6-10h-1v-13h1zm6-17h-12v-6h12zm-6-10h-1v-13h1zm-72-15h56c1.1044922 0 2-.8955078 2-2v-14c0-1.1044922-.8955078-2-2-2h-56c-1.1044922 0-2 .8955078-2 2v14c0 1.1044922.8955078 2 2 2zm2-14h52v10h-52z"/></g></svg>