<svg id="Layer_1" height="512" viewBox="0 0 512 512" width="512" xmlns="http://www.w3.org/2000/svg" xmlns:xlink="http://www.w3.org/1999/xlink" data-name="Layer 1"><linearGradient id="linear-gradient" gradientUnits="userSpaceOnUse" x1="112.027" x2="421.861" y1="133.854" y2="443.688"><stop offset="0" stop-color="#1d1d1b"/><stop offset=".369" stop-color="#1d1d1b" stop-opacity=".856"/><stop offset=".75" stop-color="#1d1d1b" stop-opacity=".429"/><stop offset="1" stop-color="#1d1d1b" stop-opacity="0"/></linearGradient><circle cx="256" cy="256" fill="#2db93e" r="250"/><path d="m494.763 330.335-86.736-86.735a103.871 103.871 0 0 0 -35.321-23.389l-83.079-83.128c-22.022-22.026-54.343-35.933-90.389-35.933-66.418 0-120.259 47.2-120.259 105.418 0 26.588 11.229 50.877 29.756 69.422l22.944 22.88c-.778 10.874-7.869 33.028-7.869 33.028l171.09 171.085c94.794-14.81 171.945-82.883 199.863-172.648z" fill="url(#linear-gradient)" opacity=".49"/><g fill="#fff"><path d="m319.415 205.138c-.883-57.553-54.315-103.988-120.177-103.988-66.418 0-120.259 47.2-120.259 105.418 0 35.869 20.437 67.554 51.659 86.6 4.663 2.844-6.828 38.734-6.828 38.734s33.508-26.32 39.871-24.6a134.433 134.433 0 0 0 56.494 2.984c-10.759-59.161 44.247-103.753 99.24-105.148zm-63.506-29.228a15.5 15.5 0 1 1 -15.5 15.5 15.5 15.5 0 0 1 15.5-15.5zm-99.539 24.11a15.5 15.5 0 1 1 15.5-15.5 15.5 15.5 0 0 1 -15.5 15.5z"/><path d="m433.021 302.787c0-50.2-46.424-90.894-103.691-90.894-55.964 0-113.239 44.95-102.267 105.282 7.885 43.344 50.6 76.505 102.267 76.505a117.209 117.209 0 0 0 30.659-4.038c5.486-1.487 34.378 21.208 34.378 21.208s-9.909-30.946-5.888-33.4c26.921-16.416 44.542-43.736 44.542-74.663zm-146.614-5.646a13.365 13.365 0 1 1 13.364-13.364 13.364 13.364 0 0 1 -13.364 13.364zm79.885 0a13.365 13.365 0 1 1 13.365-13.364 13.364 13.364 0 0 1 -13.365 13.364z"/></g></svg>