<svg id="Layer_1" height="512" viewBox="0 0 512 512" width="512" xmlns="http://www.w3.org/2000/svg" xmlns:xlink="http://www.w3.org/1999/xlink" data-name="Layer 1"><linearGradient id="linear-gradient" gradientUnits="userSpaceOnUse" x1="121.827" x2="410.014" y1="167.35" y2="455.538"><stop offset="0" stop-color="#1d1d1b"/><stop offset=".369" stop-color="#1d1d1b" stop-opacity=".856"/><stop offset=".75" stop-color="#1d1d1b" stop-opacity=".429"/><stop offset="1" stop-color="#1d1d1b" stop-opacity="0"/></linearGradient><circle cx="256" cy="256" fill="#27a737" r="250"/><path d="m371.968 141.747a156.552 156.552 0 0 0 -112.738-45.511c-87.206 0-158.262 69.465-158.262 156.03 0 28.854 8.613 56.64 22.608 80.152l-29.068 83.358 74.76 74.76a249.466 249.466 0 0 0 86.732 15.464c131.658 0 239.544-101.773 249.282-230.939zm-184.868 219.526-51.681 16.027 16.15-49.16a127.415 127.415 0 0 1 -25.84-76.946c0-72.672 60.292-131.45 133.5-131.45s133.5 58.778 134.577 131.45a129.106 129.106 0 0 1 -23.465 74.274l-33.529-33.529a5.566 5.566 0 0 0 -1.521-1.066l-23.891-10.888-96.392-96.458a5.265 5.265 0 0 0 -3.345-1.45l-10.378-.6a12.827 12.827 0 0 0 -8.968 3c-5.038 4.308-13.1 12.824-15.617 23.744-3.728 16.33 2.015 36.366 16.826 56.4a210.688 210.688 0 0 0 21.238 24.809l86.758 86.77a135.654 135.654 0 0 1 -114.422-14.927z" fill="url(#linear-gradient)" fill-rule="evenodd" opacity=".49"/><g fill="#fff"><path d="m259.23 96.236c-87.206 0-158.262 69.465-158.262 156.03 0 28.854 8.613 56.64 22.608 80.152l-29.068 83.358 88.282-27.786c22.61 11.757 48.447 19.237 76.44 19.237 87.206 0 158.262-69.465 158.262-156.03s-71.056-156.03-158.262-154.961zm1.077 286.411a133.366 133.366 0 0 1 -73.21-21.374l-51.678 16.027 16.15-49.16a127.415 127.415 0 0 1 -25.84-76.946c0-72.672 60.292-131.45 133.5-131.45s133.5 58.778 134.577 131.45c.001 72.674-60.29 131.453-133.499 131.453z"/><path d="m201.284 181.476 10.378.6a5.384 5.384 0 0 1 4.635 3.306l15.113 35.264a5.407 5.407 0 0 1 -.906 5.611l-13.2 15.127a3.94 3.94 0 0 0 -.5 4.408c17.432 33.261 49.07 46.486 58.541 49.792a3.937 3.937 0 0 0 4.433-1.3l13.8-17.832a5.453 5.453 0 0 1 6.549-1.6l35.165 16.029a5.443 5.443 0 0 1 3.023 6.011l-1.615 7.708a33.569 33.569 0 0 1 -14.61 21.239c-9.572 6.011-21.865 9.017-37.583 4.609-48.666-13.726-76.173-45.784-90.985-65.821s-20.554-40.073-16.826-56.4c2.519-10.92 10.579-19.436 15.617-23.744a12.825 12.825 0 0 1 8.968-3z" fill-rule="evenodd"/></g></svg>